<?xml version="1.0" encoding="utf-8"?>
<!-- Generator: Adobe Illustrator 21.0.2, SVG Export Plug-In . SVG Version: 6.00 Build 0)  -->
<svg version="1.1" id="Capa_1" xmlns="http://www.w3.org/2000/svg" xmlns:xlink="http://www.w3.org/1999/xlink" x="0px" y="0px"
	 viewBox="0 0 1500 300" style="enable-background:new 0 0 1500 300;" xml:space="preserve">
<style type="text/css">
	.st0{fill:#FFFFFF;}
	.st1{fill:#EF6C00;}
</style>
<g>
	<circle class="st0" cx="1121" cy="146.8" r="94.1"/>
	<path class="st1" d="M1107.2,82.2h28.9l43.2,122.1h-27.7l-8.1-25.1h-45l-8.3,25.1h-26.7L1107.2,82.2z M1105.5,158.2h31.3l-15.4-48
		L1105.5,158.2z"/>
	<g>
		<path class="st0" d="M244.4,84.2c13.1,13.9,19.7,34.2,19.7,61.1c0,28.3-6.4,49.9-19.2,64.8c-12.8,14.9-29.3,22.3-49.5,22.3
			c-12.9,0-23.6-3.2-32.1-9.6c-4.7-3.5-9.2-8.7-13.7-15.5V291H108V66.9h40.3v23.8c4.6-7,9.4-12.5,14.5-16.5
			c9.4-7.2,20.6-10.8,33.6-10.8C215.3,63.4,231.3,70.3,244.4,84.2z M212.1,114.4c-5.7-9.5-15-14.3-27.8-14.3
			c-15.4,0-26,7.2-31.7,21.7c-3,7.7-4.5,17.4-4.5,29.2c0,18.7,5,31.8,15,39.4c6,4.4,13,6.6,21.2,6.6c11.8,0,20.8-4.5,27.1-13.6
			c6.2-9,9.3-21.1,9.3-36.1C220.7,134.9,217.8,124,212.1,114.4z"/>
		<path class="st0" d="M411.2,208c-13.6,16.8-34.2,25.1-61.8,25.1c-27.6,0-48.2-8.4-61.8-25.1s-20.4-36.9-20.4-60.5
			c0-23.2,6.8-43.3,20.4-60.3c13.6-17,34.2-25.5,61.8-25.5c27.6,0,48.2,8.5,61.8,25.5c13.6,17,20.4,37.1,20.4,60.3
			C431.5,171.1,424.8,191.3,411.2,208z M377.6,184.8c6.6-8.7,9.9-21.2,9.9-37.3c0-16.1-3.3-28.5-9.9-37.2c-6.6-8.7-16-13-28.3-13
			c-12.3,0-21.8,4.3-28.4,13c-6.6,8.7-10,21.1-10,37.2c0,16.1,3.3,28.5,10,37.3c6.6,8.7,16.1,13.1,28.4,13.1
			C361.5,197.9,371,193.6,377.6,184.8z"/>
		<path class="st0" d="M574.7,76.2c10.5,8.7,15.8,23.1,15.8,43.3v108.3h-43.1v-97.8c0-8.5-1.1-14.9-3.4-19.5
			c-4.1-8.3-11.9-12.4-23.4-12.4c-14.2,0-23.9,6-29.1,18.1c-2.7,6.4-4.1,14.6-4.1,24.5v87h-42V67.2H486v23.5
			c5.4-8.3,10.5-14.2,15.3-17.8c8.6-6.5,19.5-9.7,32.8-9.7C550.6,63.1,564.1,67.4,574.7,76.2z"/>
		<path class="st0" d="M698.2,69.5c7.6,4.3,13.7,10.2,18.4,17.8V10.6h42.6v217.1h-40.9v-22.3c-6,9.5-12.8,16.5-20.5,20.8
			c-7.7,4.3-17.2,6.5-28.6,6.5c-18.8,0-34.6-7.6-47.4-22.8c-12.8-15.2-19.3-34.7-19.3-58.5c0-27.4,6.3-49,19-64.8
			c12.6-15.7,29.5-23.6,50.7-23.6C682,63.1,690.6,65.2,698.2,69.5z M708.5,184.1c6.2-8.9,9.3-20.3,9.3-34.4c0-19.7-5-33.7-14.9-42.2
			c-6.1-5.1-13.2-7.7-21.2-7.7c-12.3,0-21.3,4.6-27.1,13.9s-8.6,20.8-8.6,34.6c0,14.8,2.9,26.7,8.8,35.6
			c5.9,8.9,14.7,13.4,26.6,13.4S702.3,192.9,708.5,184.1z"/>
		<path class="st0" d="M885.6,70.2c11.2,5,20.5,13,27.8,23.8c6.6,9.6,10.9,20.6,12.8,33.2c1.1,7.4,1.6,18,1.4,31.9H810.5
			c0.7,16.1,6.3,27.4,16.8,33.9c6.4,4,14.1,6,23.2,6c9.6,0,17.4-2.5,23.3-7.4c3.3-2.7,6.1-6.3,8.7-11.1h42.9
			c-1.1,9.5-6.3,19.2-15.6,29.1c-14.4,15.6-34.6,23.5-60.5,23.5c-21.4,0-40.3-6.6-56.6-19.8s-24.5-34.6-24.5-64.4
			c0-27.9,7.4-49.2,22.2-64.1c14.8-14.9,33.9-22.3,57.5-22.3C861.8,62.7,874.4,65.2,885.6,70.2z M822.7,106.5
			c-5.9,6.1-9.7,14.4-11.2,24.9H884c-0.8-11.2-4.5-19.6-11.2-25.4c-6.7-5.8-15-8.7-24.9-8.7C837,97.3,828.7,100.4,822.7,106.5z"/>
		<path class="st0" d="M1021.6,63.2c0.5,0.1,1.7,0.1,3.6,0.2v43.1c-2.7-0.3-5-0.5-7.1-0.6c-2.1-0.1-3.7-0.1-5-0.1
			c-16.9,0-28.3,5.5-34.1,16.5c-3.2,6.2-4.9,15.7-4.9,28.6v76.9h-42.3V66.9h40.1v28c6.5-10.7,12.1-18,17-22
			c7.9-6.6,18.1-9.9,30.7-9.9C1020.4,63.1,1021,63.1,1021.6,63.2z"/>
	</g>
	<g>
		<path class="st0" d="M1214.2,196.4h30.4v30h-30.4V196.4z"/>
		<path class="st0" d="M1325.7,156.3c-0.5-4.1-1.9-7.8-4.1-11c-3.2-4.4-8.2-6.6-15-6.6c-9.7,0-16.3,4.8-19.8,14.3
			c-1.9,5.1-2.8,11.8-2.8,20.2c0,8,0.9,14.4,2.8,19.3c3.4,9.1,9.9,13.6,19.3,13.6c6.7,0,11.5-1.8,14.3-5.4c2.8-3.6,4.5-8.3,5.1-14
			h29.2c-0.7,8.7-3.8,16.9-9.4,24.7c-9,12.5-22.3,18.8-39.9,18.8s-30.6-5.2-38.9-15.7c-8.3-10.4-12.5-24-12.5-40.6
			c0-18.8,4.6-33.4,13.8-43.8c9.2-10.4,21.8-15.7,38-15.7c13.7,0,25,3.1,33.7,9.2s13.9,17,15.5,32.6H1325.7z"/>
		<path class="st0" d="M1392.3,226.4h-28.6V78.6h28.6V226.4z"/>
	</g>
</g>
</svg>
